<?xml version="1.0" standalone="no"?>
<!DOCTYPE svg PUBLIC "-//W3C//DTD SVG 20010904//EN"
 "http://www.w3.org/TR/2001/REC-SVG-20010904/DTD/svg10.dtd">
<svg version="1.0" xmlns="http://www.w3.org/2000/svg"
 width="260.000000pt" height="260.000000pt" viewBox="0 0 260.000000 260.000000"
 preserveAspectRatio="xMidYMid meet">
<metadata>
Created by potrace 1.11, written by Peter Selinger 2001-2013
</metadata>
<g transform="translate(0.000000,260.000000) scale(0.100000,-0.100000)"
fill="#000000" stroke="none">
<path d="M0 1300 l0 -1300 1300 0 1300 0 0 1300 0 1300 -1300 0 -1300 0 0
-1300z m1428 572 c-23 -105 -38 -195 -35 -199 4 -3 87 15 185 40 97 26 180 47
184 47 4 0 9 -107 10 -237 3 -268 -3 -251 84 -238 l44 6 0 232 0 232 203 53
c111 29 204 53 207 52 3 0 4 -165 2 -367 -3 -363 7 -620 29 -781 7 -45 10 -84
8 -86 -4 -4 -82 -19 -282 -53 -53 -9 -100 -13 -104 -9 -12 11 -31 144 -44 295
l-12 143 -56 -6 c-30 -4 -57 -9 -59 -11 -5 -4 12 -154 24 -222 6 -31 4 -33
-22 -33 -16 -1 -83 -11 -149 -23 l-120 -22 -10 -112 -10 -111 -193 107 c-107
59 -197 113 -201 119 -5 8 -27 4 -76 -15 -61 -22 -85 -25 -190 -25 -405 3
-656 231 -672 612 -6 138 10 220 64 322 126 240 456 349 693 228 23 -12 44
-19 46 -17 3 2 7 33 11 69 l6 65 236 70 c130 38 237 69 238 68 1 0 -17 -87
-39 -193z"/>
<path d="M671 1524 c-57 -40 -76 -155 -46 -283 15 -63 71 -181 85 -181 4 0 10
32 12 70 3 39 8 73 11 76 3 3 41 15 84 26 43 11 79 21 81 23 6 6 -56 153 -81
193 -30 46 -82 92 -106 92 -9 0 -27 -7 -40 -16z"/>
<path d="M1341 1463 c-7 -32 -15 -66 -17 -75 -4 -13 0 -18 15 -18 19 0 21 6
21 75 0 41 -2 75 -3 75 -2 0 -9 -26 -16 -57z"/>
</g>
</svg>
